<svg height="50" width="50" viewBox="0 0 24 24" xmlns="http://www.w3.org/2000/svg">
  <path d="m18.403 5.633c-1.695-1.697-3.949-2.632-6.35-2.633-4.948 0-8.976 4.027-8.978 8.977 0 1.582.413 3.126 1.198 4.488l-1.273 4.651 4.759-1.249c1.312.715 2.788 1.092 4.29 1.093h.004c4.947 0 8.975-4.027 8.977-8.977 0-2.398-.932-4.653-2.627-6.35m-6.35 13.812h-.003c-1.339-.001-2.652-.36-3.798-1.041l-.272-.162-2.824.741.753-2.753-.177-.282c-.747-1.188-1.141-2.561-1.141-3.971.002-4.114 3.349-7.461 7.465-7.461 1.993.001 3.866.778 5.275 2.188 1.408 1.411 2.184 3.285 2.183 5.279-.002 4.114-3.349 7.462-7.461 7.462"/>
</svg>
